<?xml version="1.0" encoding="UTF-8" standalone="no"?>
<svg
   xmlns:dc="http://purl.org/dc/elements/1.1/"
   xmlns:cc="http://creativecommons.org/ns#"
   xmlns:rdf="http://www.w3.org/1999/02/22-rdf-syntax-ns#"
   xmlns:svg="http://www.w3.org/2000/svg"
   xmlns="http://www.w3.org/2000/svg"
   xmlns:sodipodi="http://sodipodi.sourceforge.net/DTD/sodipodi-0.dtd"
   xmlns:inkscape="http://www.inkscape.org/namespaces/inkscape"
   sodipodi:docname="src.svg"
   inkscape:version="1.0beta1 (32d4812, 2019-09-19)"
   id="svg8"
   version="1.1"
   viewBox="0 0 210 297"
   height="297mm"
   width="210mm">
  <defs
     id="defs2" />
  <sodipodi:namedview
     id="base"
     pagecolor="#ffffff"
     bordercolor="#666666"
     borderopacity="1.0"
     inkscape:pageopacity="0.0"
     inkscape:pageshadow="2"
     inkscape:zoom="1.4"
     inkscape:cx="518.02766"
     inkscape:cy="597.65497"
     inkscape:document-units="mm"
     inkscape:current-layer="layer1"
     inkscape:document-rotation="0"
     showgrid="false"
     inkscape:window-width="1440"
     inkscape:window-height="855"
     inkscape:window-x="0"
     inkscape:window-y="335"
     inkscape:window-maximized="0" />
  <metadata
     id="metadata5">
    <rdf:RDF>
      <cc:Work
         rdf:about="">
        <dc:format>image/svg+xml</dc:format>
        <dc:type
           rdf:resource="http://purl.org/dc/dcmitype/StillImage" />
        <dc:title />
      </cc:Work>
    </rdf:RDF>
  </metadata>
  <g
     inkscape:label="Layer 1"
     inkscape:groupmode="layer"
     id="layer1">
    <flowRoot
       xml:space="preserve"
       id="flowRoot4946"
       style="font-style:normal;font-variant:normal;font-weight:normal;font-stretch:normal;font-size:40px;line-height:1.25;font-family:'K22 Didoni';-inkscape-font-specification:'K22 Didoni';letter-spacing:0px;word-spacing:0px;opacity:1;fill:#000000;fill-opacity:1;stroke:none;stop-opacity:1"
       transform="translate(535.85766,682.27405)"><flowRegion
         id="flowRegion4948"><rect
           id="rect4950"
           width="155.18628"
           height="72.262314"
           x="76.408508"
           y="751.73108" /></flowRegion><flowPara
         id="flowPara4952" /></flowRoot>    <flowRoot
       xml:space="preserve"
       id="flowRoot4958"
       style="font-style:normal;font-variant:normal;font-weight:bold;font-stretch:normal;font-size:21.3333px;line-height:1.25;font-family:Arial;-inkscape-font-specification:'Arial Bold';letter-spacing:0px;word-spacing:0px;opacity:1;fill:#000000;fill-opacity:1;stroke:none;stop-opacity:1"
       transform="translate(535.85766,682.27405)"><flowRegion
         id="flowRegion4960"
         style="font-style:normal;font-variant:normal;font-weight:bold;font-stretch:normal;font-size:21.3333px;font-family:Arial;-inkscape-font-specification:'Arial Bold'"><rect
           id="rect4962"
           width="257.06427"
           height="56.269833"
           x="262.39511"
           y="728.63086"
           style="-inkscape-font-specification:'Arial Bold';font-family:Arial;font-weight:bold;font-style:normal;font-stretch:normal;font-variant:normal;font-size:21.33333333px;" /></flowRegion><flowPara
         id="flowPara4964" /></flowRoot>    <rect
       style="fill:#e6e6e6;fill-opacity:1;stroke-width:0.229597;stroke-linecap:round"
       id="x:dropdown-out"
       width="68.791664"
       height="15.875"
       x="65.956841"
       y="128.34018"
       inkscape:export-xdpi="96"
       inkscape:export-ydpi="96" />
    <g
       transform="matrix(1.5000845,0,0,1.5238324,-75.490644,-71.738023)"
       id="x:icon">
      <path
         style="opacity:1;fill:#e6e6e6;fill-opacity:1;stroke-width:0.0190899;stroke-linecap:round;stop-opacity:1"
         d="m 148.28596,139.0746 -0.15867,-0.43607 0.0791,-0.39256 c 0.0435,-0.21591 0.0808,-0.40379 0.0828,-0.41752 0.003,-0.0213 -0.36503,-0.18242 -0.87673,-0.38368 l -0.0915,-0.036 -0.24075,0.35561 -0.24074,0.3556 -0.42446,0.19659 -0.42446,0.19658 -0.22298,-0.21949 -0.22299,-0.2195 0.19972,-0.41783 0.1997,-0.41783 0.36135,-0.23704 0.36134,-0.23705 -0.0324,-0.0805 c -0.1817,-0.45108 -0.37358,-0.87544 -0.39449,-0.87243 -0.0137,0.002 -0.20496,0.0387 -0.42497,0.0817 l -0.40004,0.0781 -0.44176,-0.15673 -0.44175,-0.15673 2e-4,-0.31328 2.2e-4,-0.31328 0.44705,-0.15578 0.44705,-0.15578 0.41325,0.0842 c 0.22728,0.0463 0.41889,0.0781 0.42579,0.0705 0.0313,-0.0341 0.40032,-0.94135 0.38753,-0.95267 -0.008,-0.007 -0.17043,-0.11489 -0.36115,-0.23976 l -0.34675,-0.22703 -0.20043,-0.42037 -0.20044,-0.42038 0.22199,-0.21851 0.22198,-0.21852 0.4248,0.19589 0.4248,0.1959 0.23665,0.34718 c 0.13016,0.19095 0.24242,0.35069 0.24946,0.35498 0.0101,0.006 0.91362,-0.35209 0.96161,-0.38128 0.007,-0.004 -0.026,-0.19301 -0.0726,-0.41984 l -0.0847,-0.41243 0.15923,-0.4408 0.15923,-0.44079 0.31768,0.005 0.31769,0.005 0.15774,0.43249 0.15774,0.43249 -0.084,0.41035 c -0.0462,0.22569 -0.0782,0.41631 -0.0711,0.4236 0.0237,0.0242 0.94853,0.39474 0.96313,0.38586 0.008,-0.005 0.1198,-0.16475 0.24868,-0.35544 l 0.23432,-0.34671 0.4261,-0.19614 0.42611,-0.19614 0.22114,0.21769 0.22115,0.21769 -0.19977,0.4188 -0.19977,0.41879 -0.35221,0.23081 c -0.19373,0.12694 -0.35621,0.23716 -0.36108,0.24493 -0.009,0.0144 0.36737,0.92478 0.39197,0.94808 0.007,0.007 0.20106,-0.0245 0.43033,-0.07 l 0.41686,-0.0827 0.43935,0.15527 0.43936,0.15528 0.005,0.31293 0.005,0.31294 -0.44422,0.15659 -0.44422,0.15659 -0.42402,-0.0837 -0.42403,-0.0837 -0.0294,0.0687 c -0.2118,0.49499 -0.36869,0.88053 -0.36241,0.89054 0.004,0.007 0.16653,0.11723 0.36052,0.24528 l 0.3527,0.23283 0.19909,0.4182 0.1991,0.4182 -0.22209,0.21861 -0.22208,0.21861 -0.42733,-0.19745 -0.42732,-0.19744 -0.24108,-0.3561 c -0.1326,-0.19585 -0.25032,-0.35238 -0.2616,-0.34784 -0.39632,0.15956 -0.92821,0.37986 -0.93832,0.38864 -0.007,0.006 0.0249,0.19496 0.0718,0.41892 l 0.0853,0.40721 -0.15842,0.44019 -0.15842,0.44018 -0.31854,1.6e-4 -0.31853,1.6e-4 -0.15868,-0.43608 z m 0.65532,-2.91872 c 0.52534,-0.10981 0.81093,-0.6776 0.5851,-1.16321 -0.0648,-0.13938 -0.23926,-0.31661 -0.37952,-0.38561 -0.49602,-0.24399 -1.09364,0.0344 -1.20756,0.5625 -0.1289,0.59754 0.39496,1.11321 1.00198,0.98632 z"
         id="path1320"
         inkscape:connector-curvature="0" />
      <path
         inkscape:connector-curvature="0"
         id="path1324"
         style="opacity:1;fill:#e6e6e6;fill-opacity:1;stroke-width:0.0458344;stroke-linecap:round;stop-opacity:1"
         d="m 148.76438,132.43592 a 3.0027821,2.907153 0 0 0 -3.00282,2.90722 3.0027821,2.907153 0 0 0 3.00282,2.90713 3.0027821,2.907153 0 0 0 3.00281,-2.90713 3.0027821,2.907153 0 0 0 -3.00281,-2.90722 z m -0.0114,0.83883 a 2.1036438,2.0707831 0 0 1 0.008,0 2.1036438,2.0707831 0 0 1 2.10361,2.07084 2.1036438,2.0707831 0 0 1 -2.10361,2.07077 2.1036438,2.0707831 0 0 1 -2.10362,-2.07077 2.1036438,2.0707831 0 0 1 2.09536,-2.07084 z" />
    </g>
    <rect
       inkscape:export-ydpi="96"
       inkscape:export-xdpi="96"
       y="172.35724"
       x="65.956841"
       height="15.875"
       width="68.791664"
       id="x:dropdown-down"
       style="fill:#b3b3b3;fill-opacity:1;stroke-width:0.229597;stroke-linecap:round" />
    <rect
       inkscape:export-ydpi="96"
       inkscape:export-xdpi="96"
       y="149.98103"
       x="65.956841"
       height="15.875"
       width="68.791664"
       id="x:dropdown-over"
       style="fill:#cccccc;fill-opacity:1;stroke-width:0.229597;stroke-linecap:round" />
  </g>
</svg>
