<?xml version="1.0" encoding="UTF-8" standalone="no"?>
<svg
   xmlns:dc="http://purl.org/dc/elements/1.1/"
   xmlns:cc="http://creativecommons.org/ns#"
   xmlns:rdf="http://www.w3.org/1999/02/22-rdf-syntax-ns#"
   xmlns:svg="http://www.w3.org/2000/svg"
   xmlns="http://www.w3.org/2000/svg"
   xmlns:sodipodi="http://sodipodi.sourceforge.net/DTD/sodipodi-0.dtd"
   xmlns:inkscape="http://www.inkscape.org/namespaces/inkscape"
   sodipodi:docname="suits.svg"
   inkscape:version="1.0beta1 (32d4812, 2019-09-19)"
   id="svg1074"
   version="1.1"
   viewBox="0 0 210 297"
   height="297mm"
   width="210mm">
  <defs
     id="defs1068" />
  <sodipodi:namedview
     inkscape:window-maximized="0"
     inkscape:window-y="94"
     inkscape:window-x="67"
     inkscape:window-height="784"
     inkscape:window-width="1440"
     showgrid="false"
     inkscape:document-rotation="0"
     inkscape:current-layer="layer1"
     inkscape:document-units="mm"
     inkscape:cy="560"
     inkscape:cx="400"
     inkscape:zoom="0.35"
     inkscape:pageshadow="2"
     inkscape:pageopacity="0.0"
     borderopacity="1.0"
     bordercolor="#666666"
     pagecolor="#ffffff"
     id="base" />
  <metadata
     id="metadata1071">
    <rdf:RDF>
      <cc:Work
         rdf:about="">
        <dc:format>image/svg+xml</dc:format>
        <dc:type
           rdf:resource="http://purl.org/dc/dcmitype/StillImage" />
        <dc:title></dc:title>
      </cc:Work>
    </rdf:RDF>
  </metadata>
  <g
     id="layer1"
     inkscape:groupmode="layer"
     inkscape:label="Layer 1">
    <rect
       transform="matrix(0.59999999,0.80000001,-0.59999999,0.80000001,0,0)"
       y="21.294668"
       x="124.69864"
       height="3.3072915"
       width="3.3072915"
       id="rect10"
       style="fill:#b3b3b3;stroke-width:0.0077688" />
    <path
       inkscape:connector-curvature="0"
       d="m 71.916882,117.26194 a 1.0394344,1.5922904 0 0 0 -0.26832,0.71288 1.0394344,1.5922904 0 0 0 0.26898,1.53796 l 0.210001,0.32169 1.46998,2.25184 1.46998,-2.25184 0.209999,-0.32169 a 1.0394344,1.5922904 0 0 0 0.268971,-1.53796 1.0394344,1.5922904 0 0 0 -0.26963,-0.71489 1.0394344,1.5922904 0 0 0 -0.465361,-0.41103 1.0394344,1.5922904 0 0 0 -1.003969,0.41204 l -0.20999,0.32169 -0.21,-0.32169 a 1.0394344,1.5922904 0 0 0 -1.003971,-0.41204 1.0394344,1.5922904 0 0 0 -0.46667,0.41304 z"
       style="fill:#b3b3b3;stroke-width:0.052678"
       id="rect34" />
    <path
       inkscape:connector-curvature="0"
       d="m 85.152652,116.79464 -1.469939,1.98231 -0.21006,0.28319 a 1.0394345,1.4016908 0 0 0 -0.26898,1.35366 1.0394345,1.4016908 0 0 0 0.26976,0.62942 1.0394345,1.4016908 0 0 0 0.465339,0.36173 1.0394345,1.4016908 0 0 0 1.003821,-0.36251 l 0.16174,-0.21781 c -0.20883,0.50307 -0.46082,0.91662 -0.745431,1.26168 h 0.79375 0.79375 c -0.284609,-0.34506 -0.536599,-0.75861 -0.745429,-1.26168 l 0.16175,0.21781 a 1.0394345,1.4016908 0 0 0 1.00381,0.36251 1.0394345,1.4016908 0 0 0 0.46664,-0.36354 1.0394345,1.4016908 0 0 0 0.268459,-0.62761 1.0394345,1.4016908 0 0 0 -0.268981,-1.35366 l -0.210058,-0.28319 z"
       style="fill:#b3b3b3;stroke-width:0.0494247"
       id="path59" />
    <path
       inkscape:connector-curvature="0"
       d="m 96.700292,116.79464 c -0.24144,0 -0.48291,0.11549 -0.66711,0.34649 -0.368429,0.462 -0.368429,1.21103 0,1.67303 0.096,0.11531 0.17385,0.21853 0.24416,0.316 -0.046,-0.0308 -0.089,-0.0576 -0.139009,-0.0938 -0.49848,-0.3609 -1.02798,-0.13304 -1.2885,0.43279 -0.260519,0.56583 -0.106039,1.2895 0.345181,1.61618 0.451228,0.32668 1.02824,0.13278 1.288759,-0.43305 0.0531,-0.12129 0.10241,-0.22215 0.150119,-0.31626 -0.20374,0.69369 -0.447,1.26745 -0.720079,1.75028 h 0.793721 0.79371 c -0.273082,-0.48283 -0.516342,-1.05659 -0.720082,-1.75028 0.0478,0.0941 0.097,0.19495 0.150122,0.31626 0.260509,0.56583 0.837528,0.75973 1.288759,0.43305 0.45122,-0.32668 0.605949,-1.05035 0.34544,-1.61618 -0.260519,-0.56583 -0.790281,-0.79369 -1.288759,-0.43279 -0.0521,0.0377 -0.097,0.0658 -0.14469,0.0977 0.0672,-0.0986 0.142179,-0.20302 0.235368,-0.31988 0.407022,-0.51038 0.36843,-1.21103 0,-1.67302 -0.184208,-0.231 -0.42567,-0.3465 -0.66711,-0.3465 z"
       style="fill:#b3b3b3;stroke:none;stroke-width:0.0928711px;stroke-linecap:butt;stroke-linejoin:miter;stroke-opacity:1"
       id="path74" />
    <rect
       style="fill:#b3b3b3;stroke-width:0.0155376"
       id="rect36"
       width="6.6145835"
       height="6.6145835"
       x="117.37535"
       y="9.7191448"
       transform="matrix(0.59999999,0.80000001,-0.59999999,0.80000001,0,0)" />
    <path
       id="path38"
       style="fill:#b3b3b3;stroke-width:0.105356"
       d="m 72.787582,102.6102 a 2.078869,3.1845811 0 0 0 -0.53664,1.42574 2.078869,3.1845811 0 0 0 0.53795,3.07593 l 0.420001,0.64338 2.93996,4.50368 2.93996,-4.50368 0.419999,-0.64338 a 2.078869,3.1845811 0 0 0 0.53795,-3.07593 2.078869,3.1845811 0 0 0 -0.53926,-1.42976 2.078869,3.1845811 0 0 0 -0.93072,-0.82207 2.078869,3.1845811 0 0 0 -2.007939,0.82408 l -0.41999,0.64338 -0.419991,-0.64338 a 2.078869,3.1845811 0 0 0 -2.00794,-0.82408 2.078869,3.1845811 0 0 0 -0.93334,0.82609 z"
       inkscape:connector-curvature="0" />
    <path
       id="path40"
       style="fill:#b3b3b3;stroke-width:0.0988494"
       d="m 87.703982,101.67559 -2.939879,3.96462 -0.42012,0.56637 a 2.078869,2.8033816 0 0 0 -0.53796,2.70733 2.078869,2.8033816 0 0 0 0.53951,1.25884 2.078869,2.8033816 0 0 0 0.93069,0.72347 2.078869,2.8033816 0 0 0 2.00763,-0.72502 l 0.32349,-0.43563 c -0.417671,1.00615 -0.921641,1.83323 -1.490861,2.52336 h 1.5875 1.5875 c -0.569229,-0.69013 -1.0732,-1.51721 -1.490868,-2.52336 l 0.323498,0.43563 a 2.078869,2.8033816 0 0 0 2.007632,0.72502 2.078869,2.8033816 0 0 0 0.93327,-0.72709 2.078869,2.8033816 0 0 0 0.536919,-1.25522 2.078869,2.8033816 0 0 0 -0.537951,-2.70733 l -0.420129,-0.56637 z"
       inkscape:connector-curvature="0" />
    <path
       id="path42"
       style="fill:#b3b3b3;stroke:none;stroke-width:0.185742px;stroke-linecap:butt;stroke-linejoin:miter;stroke-opacity:1"
       d="m 99.244303,101.67559 c -0.482891,0 -0.965819,0.23099 -1.33423,0.69298 -0.736851,0.924 -0.736851,2.42206 0,3.34605 0.19196,0.23062 0.347699,0.43707 0.48832,0.632 -0.0919,-0.0615 -0.17803,-0.1152 -0.278011,-0.18758 -0.99696,-0.72179 -2.055968,-0.26608 -2.57701,0.86558 -0.52103,1.13166 -0.212079,2.579 0.69037,3.23236 0.902462,0.65336 2.056482,0.26556 2.57752,-0.8661 0.10622,-0.24258 0.204819,-0.44428 0.300231,-0.63252 -0.407469,1.38739 -0.894001,2.53491 -1.440162,3.50057 h 1.587442 1.587427 c -0.54616,-0.96566 -1.032688,-2.11318 -1.440157,-3.50057 0.0955,0.18822 0.193979,0.38991 0.300231,0.63252 0.521026,1.13166 1.675056,1.51946 2.577516,0.8661 0.90245,-0.65336 1.21191,-2.1007 0.69088,-3.23236 -0.52104,-1.13166 -1.58055,-1.58737 -2.57752,-0.86558 -0.10412,0.0754 -0.19402,0.13169 -0.28938,0.19534 0.13449,-0.19728 0.28437,-0.40603 0.47075,-0.63976 0.81403,-1.02076 0.73685,-2.42205 0,-3.34605 -0.36842,-0.46199 -0.851336,-0.69298 -1.334217,-0.69298 z"
       inkscape:connector-curvature="0" />
  </g>
</svg>
